<svg width="60" height="60" viewBox="0 0 60 60" fill="none" xmlns="http://www.w3.org/2000/svg">
    <path d="M59.4023 18C59.4023 18 58.8164 13.8633 57.0117 12.0469C54.7266 9.65625 52.1719 9.64453 51 9.50391C42.6094 8.89453 30.0117 8.89453 30.0117 8.89453H29.9883C29.9883 8.89453 17.3906 8.89453 9 9.50391C7.82813 9.64453 5.27344 9.65625 2.98828 12.0469C1.18359 13.8633 0.609375 18 0.609375 18C0.609375 18 0 22.8633 0 27.7148V32.2617C0 37.1133 0.597656 41.9766 0.597656 41.9766C0.597656 41.9766 1.18359 46.1133 2.97656 47.9297C5.26172 50.3203 8.26172 50.2383 9.59766 50.4961C14.4023 50.9531 30 51.0938 30 51.0938C30 51.0938 42.6094 51.0703 51 50.4727C52.1719 50.332 54.7266 50.3203 57.0117 47.9297C58.8164 46.1133 59.4023 41.9766 59.4023 41.9766C59.4023 41.9766 60 37.125 60 32.2617V27.7148C60 22.8633 59.4023 18 59.4023 18ZM23.8008 37.7812V20.918L40.0078 29.3789L23.8008 37.7812Z" fill="white"/>
</svg>
